<?xml version="1.0" standalone="no"?>
<!DOCTYPE svg PUBLIC "-//W3C//DTD SVG 20010904//EN"
 "http://www.w3.org/TR/2001/REC-SVG-20010904/DTD/svg10.dtd">
<svg version="1.0" xmlns="http://www.w3.org/2000/svg"
        width="332.000000pt" height="332.000000pt" viewBox="0 0 332.000000 332.000000"
        preserveAspectRatio="xMidYMid meet">

        <g transform="translate(0.000000,332.000000) scale(0.100000,-0.100000)"
        stroke="none">
        <path d="M2285 2981 c-43 -19 -104 -81 -130 -131 -13 -25 -21 -31 -38 -27
        -138 34 -213 42 -387 41 -199 0 -311 -17 -469 -70 -315 -106 -584 -327 -707
        -582 -21 -45 -44 -82 -51 -82 -17 0 -70 68 -76 96 -3 19 3 28 28 44 39 24 102
        91 134 143 16 26 23 53 23 86 0 155 -182 227 -286 113 -22 -25 -66 -143 -66
        -177 0 -31 -10 -32 -38 -3 -40 44 -39 72 8 164 49 98 49 125 -4 151 -46 21
        -80 11 -111 -35 -31 -45 -75 -179 -75 -228 0 -91 89 -205 186 -239 31 -10 39
        -21 60 -71 33 -81 70 -131 126 -170 26 -18 52 -34 57 -36 7 -2 7 -27 0 -73
        -25 -175 34 -411 148 -582 50 -77 162 -194 243 -255 l65 -49 5 -179 5 -178 30
        -43 c53 -75 82 -84 302 -87 118 -2 207 1 232 8 80 21 133 91 146 192 l6 48 75
        0 74 0 0 -32 c0 -92 65 -185 145 -207 23 -6 121 -11 226 -11 185 0 187 0 240
        28 43 22 59 38 81 81 27 52 28 58 28 206 l0 153 78 55 c85 60 191 167 237 240
        l30 47 146 0 c136 0 148 2 197 26 39 19 59 38 80 72 l27 47 3 237 c4 275 -1
        304 -62 364 -50 51 -93 64 -212 64 l-90 0 -47 93 c-75 147 -205 296 -333 380
        -30 20 -31 24 -37 111 -11 162 -40 231 -114 262 -44 19 -90 17 -138 -5z m93
        -202 c7 -30 11 -83 8 -118 -6 -89 4 -109 82 -161 148 -100 272 -252 337 -414
        41 -101 49 -105 211 -106 79 0 124 -4 132 -12 13 -13 18 -431 6 -462 -5 -14
        -30 -16 -174 -16 -93 0 -176 -3 -184 -6 -9 -4 -37 -38 -63 -78 -58 -91 -186
        -218 -285 -285 l-78 -52 0 -169 c0 -93 -4 -180 -10 -194 l-10 -26 -184 0
        c-135 0 -186 3 -194 13 -5 6 -12 51 -13 99 -6 133 -4 132 -232 136 l-183 3
        -27 -25 c-25 -24 -27 -30 -27 -114 0 -55 -4 -92 -12 -100 -8 -8 -66 -12 -195
        -12 -170 0 -183 1 -193 19 -6 12 -10 92 -10 190 0 99 -4 180 -11 193 -5 13
        -34 39 -62 58 -73 49 -191 164 -243 237 -94 130 -144 283 -144 437 0 122 22
        216 79 331 81 163 196 285 376 396 267 165 668 219 1003 134 53 -14 104 -25
        113 -25 22 0 54 37 74 85 18 44 73 107 90 102 5 -2 16 -28 23 -58z m-1918
        -278 c0 -5 -7 -14 -15 -21 -16 -14 -18 -10 -9 14 6 17 24 22 24 7z"/>
        <path d="M1610 2624 c-87 -11 -209 -37 -280 -59 -60 -20 -79 -30 -88 -50 -17
        -36 -15 -48 9 -79 16 -21 29 -26 64 -26 24 0 55 4 70 10 84 32 235 52 390 51
        150 0 161 1 182 21 32 30 33 102 1 119 -21 12 -281 21 -348 13z"/>
        <path d="M1526 2198 c-9 -13 -16 -43 -16 -69 l0 -47 -76 -4 c-121 -6 -115 15
        -112 -384 2 -256 6 -336 16 -346 8 -8 45 -14 92 -17 l80 -3 0 -53 c0 -57 15
        -78 62 -90 26 -7 66 8 80 29 4 6 8 34 8 61 l0 50 77 13 c58 9 86 19 113 40
        101 82 117 198 39 287 -16 18 -43 38 -59 45 l-31 13 36 29 c47 39 65 77 65
        133 0 99 -65 169 -175 188 l-65 11 0 51 c0 64 -19 85 -78 85 -31 0 -45 -5 -56
        -22z m-16 -328 c0 -93 -1 -100 -20 -100 -19 0 -20 7 -20 100 0 93 1 100 20
        100 19 0 20 -7 20 -100z m219 65 c7 -7 15 -33 18 -56 6 -53 -23 -99 -63 -99
        -24 0 -24 1 -24 90 l0 90 28 -6 c15 -4 33 -12 41 -19z m-219 -380 c0 -108 -1
        -115 -20 -115 -19 0 -20 7 -20 115 0 108 1 115 20 115 19 0 20 -7 20 -115z
        m206 95 c8 0 26 -11 39 -25 37 -37 35 -106 -4 -146 -16 -16 -36 -29 -44 -29
        -9 0 -22 -3 -31 -6 -14 -5 -16 7 -16 98 0 107 4 123 28 113 7 -3 20 -5 28 -5z"/>
        <path d="M2335 2060 c-50 -25 -75 -65 -75 -120 0 -82 57 -134 146 -134 62 0
        100 22 120 69 30 74 6 157 -56 187 -46 23 -86 23 -135 -2z"/>
        </g>
</svg>
