<?xml version="1.0" standalone="no"?>
<!DOCTYPE svg PUBLIC "-//W3C//DTD SVG 20010904//EN"
 "http://www.w3.org/TR/2001/REC-SVG-20010904/DTD/svg10.dtd">
<svg version="1.0" xmlns="http://www.w3.org/2000/svg"
        width="400.000000pt" height="400.000000pt" viewBox="0 0 400.000000 400.000000"
        preserveAspectRatio="xMidYMid meet">

        <g transform="translate(0.000000,400.000000) scale(0.100000,-0.100000)"
            stroke="none">
            <path d="M431 3239 c-50 -15 -106 -56 -135 -100 -81 -121 -44 -282 81 -356
            l48 -28 1575 0 1575 0 40 22 c89 48 130 117 130 223 0 64 -4 82 -28 122 -15
            26 -42 59 -60 72 -78 59 19 56 -1656 55 -955 0 -1549 -4 -1570 -10z"/>
            <path d="M431 2239 c-87 -26 -154 -100 -174 -195 -21 -100 25 -202 118 -259
            l48 -30 1576 0 1576 0 40 22 c89 48 130 117 130 223 0 64 -4 82 -28 122 -15
            26 -42 59 -60 72 -78 59 19 56 -1656 55 -955 0 -1549 -4 -1570 -10z"/>
            <path d="M418 1234 c-101 -31 -178 -152 -165 -261 10 -95 88 -189 176 -213 27
            -7 541 -9 1593 -8 l1553 3 40 22 c89 48 130 117 130 223 0 64 -4 82 -28 122
            -32 55 -76 92 -136 113 -64 22 -3090 22 -3163 -1z"/>
        </g>
</svg>
