<?xml version="1.0" standalone="no"?>
<!DOCTYPE svg PUBLIC "-//W3C//DTD SVG 20010904//EN"
 "http://www.w3.org/TR/2001/REC-SVG-20010904/DTD/svg10.dtd">
<svg version="1.0" xmlns="http://www.w3.org/2000/svg"
            width="100" height="100" viewBox="0 0 260.000000 280.000000"
            preserveAspectRatio="xMidYMid meet">

            <g transform="translate(0.000000,280.000000) scale(0.100000,-0.100000)"
             stroke="none">
            <path d="M1097 2260 c-23 -18 -26 -29 -29 -90 l-3 -70 -290 -2 c-310 -3 -322
            -5 -368 -56 -45 -49 -46 -69 -47 -627 0 -352 4 -543 11 -570 13 -47 52 -92 96
            -111 27 -12 176 -14 835 -14 790 0 802 0 844 21 26 12 53 36 66 57 l23 37 3
            560 3 560 -23 45 c-29 56 -74 87 -141 95 -29 3 -161 5 -294 3 l-241 -3 -4 69
            c-3 60 -7 71 -31 92 -27 23 -33 24 -206 24 -164 0 -180 -2 -204 -20z m383
            -106 c0 -56 -2 -65 -16 -60 -9 3 -90 6 -180 6 l-164 0 0 60 0 60 180 0 180 0
            0 -66z m657 -134 c44 -26 53 -67 53 -246 l0 -151 -77 -35 c-164 -75 -359 -137
            -575 -183 -29 -6 -40 -39 -15 -48 38 -14 364 79 553 158 59 25 109 45 111 45
            2 0 3 -159 1 -353 -3 -394 -3 -394 -73 -423 -50 -21 -1579 -21 -1629 0 -67 28
            -66 22 -66 417 l0 357 98 -43 c170 -74 416 -149 517 -157 35 -3 40 0 43 19 2
            17 -3 24 -20 27 -218 44 -385 96 -544 171 l-94 44 0 173 c1 185 6 209 51 234
            19 11 180 13 829 14 780 0 806 -1 837 -20z"/>
            <path d="M1182 1428 c-16 -16 -16 -210 0 -226 16 -16 220 -16 236 0 16 16 16
            210 0 226 -8 8 -49 12 -118 12 -69 0 -110 -4 -118 -12z m193 -115 l0 -68 -72
            -3 -73 -3 0 73 0 73 72 -2 73 -1 0 -69z"/>
            <path d="M603 95 c0 -27 2 -38 4 -22 2 15 8 27 13 27 5 0 11 -12 13 -27 4 -26
            4 -26 6 5 1 22 -4 32 -13 32 -8 0 -17 8 -19 18 -3 9 -5 -5 -4 -33z"/>
            <path d="M1102 95 c0 -27 2 -43 5 -35 3 8 13 24 22 35 15 18 15 19 -1 7 -14
            -12 -17 -10 -21 15 -2 16 -4 6 -5 -22z"/>
            <path d="M720 120 c-4 -25 1 -54 10 -63 4 -5 5 3 3 17 -4 19 -1 26 11 26 9 0
            16 -8 16 -19 0 -11 4 -22 9 -25 5 -4 7 3 4 15 -3 12 -1 24 4 28 7 4 6 11 -3
            19 -8 7 -14 8 -14 2 0 -14 -27 -13 -33 3 -4 8 -6 8 -7 -3z"/>
            <path d="M949 118 c-2 -25 3 -53 11 -62 5 -5 6 1 3 14 -3 12 -1 25 4 29 7 4 6
            11 -3 19 -11 10 -14 10 -15 0z"/>
            <path d="M1500 125 c-1 -5 -1 -21 0 -34 1 -13 -4 -28 -12 -32 -9 -6 -3 -9 17
            -9 17 0 25 4 18 8 -6 4 -13 23 -16 42 -2 19 -5 31 -7 25z"/>
            <path d="M1560 125 c-1 -5 -1 -21 0 -34 1 -13 -4 -28 -12 -32 -9 -6 -3 -9 17
            -9 17 0 25 4 18 8 -6 4 -13 23 -16 42 -2 19 -5 31 -7 25z"/>
            <path d="M1617 123 c22 -4 22 -6 8 -33 -22 -42 -17 -51 5 -10 25 46 25 50 -7
            49 -24 -2 -25 -2 -6 -6z"/>
            <path d="M1664 115 c-4 -8 -1 -22 6 -30 6 -8 9 -19 5 -25 -3 -5 -4 -10 -1 -10
            10 0 33 55 29 68 -6 17 -32 15 -39 -3z m28 -10 c0 -5 -5 -11 -11 -13 -6 -2
            -11 4 -11 13 0 9 5 15 11 13 6 -2 11 -8 11 -13z"/>
            <path d="M1740 125 c-1 -5 -1 -21 0 -34 1 -13 -4 -28 -12 -32 -9 -6 -3 -9 17
            -9 17 0 25 4 18 8 -6 4 -13 23 -16 42 -2 19 -5 31 -7 25z"/>
            <path d="M1785 120 c-4 -6 1 -7 11 -3 13 5 16 3 11 -10 -3 -9 -2 -19 4 -22 14
            -9 -1 -27 -18 -21 -8 3 -11 1 -8 -4 9 -14 32 -12 38 3 14 38 -19 88 -38 57z"/>
            <path d="M1845 120 c-4 -6 1 -7 11 -3 13 5 16 3 11 -10 -3 -9 -2 -19 4 -22 14
            -9 -1 -27 -18 -21 -8 3 -11 1 -8 -4 8 -14 32 -13 37 2 13 39 -18 88 -37 58z"/>
            <path d="M1917 123 c22 -4 22 -6 8 -33 -22 -42 -17 -51 5 -10 25 46 25 50 -7
            49 -24 -2 -25 -2 -6 -6z"/>
            <path d="M1967 123 c-12 -12 -7 -33 7 -33 26 0 28 -20 4 -29 -14 -6 -17 -10
            -7 -10 8 -1 20 4 26 10 14 14 6 39 -13 39 -20 0 -17 18 4 23 14 4 14 5 1 6 -9
            0 -19 -2 -22 -6z"/>
            <path d="M2030 106 c-15 -29 -8 -56 15 -56 23 0 31 31 12 45 -12 9 -14 14 -5
            23 7 7 8 12 2 12 -6 0 -16 -11 -24 -24z m22 -31 c0 -5 -5 -11 -11 -13 -6 -2
            -11 4 -11 13 0 9 5 15 11 13 6 -2 11 -8 11 -13z"/>
            <path d="M550 93 c0 -10 4 -14 8 -8 4 6 11 13 16 18 5 4 2 7 -7 7 -10 0 -17
            -8 -17 -17z"/>
            <path d="M661 83 c-1 -27 3 -33 19 -33 16 0 20 6 19 33 -2 30 -2 30 -6 5 -6
            -36 -20 -36 -26 0 -4 25 -4 25 -6 -5z"/>
            <path d="M807 104 c-13 -13 -7 -24 14 -24 11 0 19 5 17 12 -5 14 -22 21 -31
            12z"/>
            <path d="M861 78 c2 -28 2 -29 6 -8 3 14 10 28 17 32 7 5 5 8 -6 8 -14 0 -18
            -8 -17 -32z"/>
            <path d="M900 93 c0 -10 4 -14 8 -8 4 6 11 13 16 18 5 4 2 7 -7 7 -10 0 -17
            -8 -17 -17z"/>
            <path d="M994 95 c-8 -21 2 -45 20 -45 7 0 16 7 20 15 8 21 -3 45 -20 45 -8 0
            -17 -7 -20 -15z m31 -15 c0 -7 -6 -15 -12 -17 -8 -3 -13 4 -13 17 0 13 5 20
            13 18 6 -3 12 -11 12 -18z"/>
            <path d="M1054 95 c-8 -20 2 -45 18 -44 10 0 10 2 1 6 -7 2 -13 13 -13 23 0
            10 6 21 13 23 9 4 9 6 -1 6 -7 1 -15 -6 -18 -14z"/>
            <path d="M1194 95 c-8 -20 2 -45 18 -44 10 0 10 2 1 6 -7 2 -13 13 -13 23 0
            10 6 21 13 23 9 4 9 6 -1 6 -7 1 -15 -6 -18 -14z"/>
            <path d="M1245 100 c-3 -5 0 -7 8 -4 20 7 32 -15 18 -29 -9 -9 -14 -8 -22 3
            -9 13 -10 13 -6 0 5 -21 33 -24 40 -5 13 32 -21 63 -38 35z"/>
            <path d="M1301 77 c2 -31 2 -31 6 -4 2 15 8 27 13 27 5 0 11 -12 13 -27 l4
            -28 2 28 c0 15 5 27 10 27 5 0 12 -12 14 -27 4 -27 4 -27 6 4 1 29 -1 31 -34
            31 -33 0 -35 -2 -34 -31z"/>
            <path d="M562 65 c-11 -12 -10 -15 3 -15 8 0 15 7 15 15 0 18 -2 18 -18 0z"/>
            <path d="M912 65 c-11 -12 -10 -15 3 -15 8 0 15 7 15 15 0 18 -2 18 -18 0z"/>
            <path d="M1120 71 c0 -5 5 -13 10 -16 6 -3 10 -2 10 4 0 5 -4 13 -10 16 -5 3
            -10 2 -10 -4z"/>
            <path d="M808 58 c5 -5 16 -8 23 -6 8 3 3 7 -10 11 -17 4 -21 3 -13 -5z"/>
            </g>
</svg>
