<?xml version="1.0" standalone="no"?>
<!DOCTYPE svg PUBLIC "-//W3C//DTD SVG 20010904//EN"
 "http://www.w3.org/TR/2001/REC-SVG-20010904/DTD/svg10.dtd">
<svg version="1.0" xmlns="http://www.w3.org/2000/svg"
 width="174.000000pt" height="163.000000pt" viewBox="0 0 174.000000 163.000000"
 preserveAspectRatio="xMidYMid meet">

            <g transform="translate(0.000000,163.000000) scale(0.100000,-0.100000)"
            fill="var(--first-color)" stroke="none">
            <path d="M711 1519 c-71 -14 -141 -39 -216 -78 -84 -43 -223 -177 -273 -263
            -70 -119 -109 -286 -98 -414 27 -296 208 -531 486 -631 68 -24 89 -26 225 -27
            116 -1 163 3 206 16 51 16 56 20 51 43 -5 29 -3 29 -66 10 -91 -28 -94 -21
            -27 51 56 60 62 69 55 97 -7 33 -12 43 -17 36 -50 -68 -115 -143 -138 -160
            l-29 -20 0 134 0 134 48 -8 c26 -4 62 -11 80 -15 35 -7 36 -6 23 29 -8 21 -20
            27 -80 37 l-71 12 0 144 0 144 146 0 146 0 -3 -66 c-4 -59 -2 -68 18 -81 24
            -16 23 -19 38 100 l6 47 139 0 c76 0 141 -4 144 -8 9 -15 -22 -158 -48 -223
            -24 -59 -25 -65 -9 -76 9 -7 20 -13 24 -13 9 0 43 80 65 155 26 83 26 284 1
            374 -86 313 -380 534 -704 530 -43 -1 -98 -5 -122 -10z m-21 -106 c-28 -32
            -66 -81 -83 -110 -18 -29 -36 -53 -41 -53 -17 0 -136 74 -133 84 10 29 236
            133 295 136 8 0 -10 -26 -38 -57z m355 32 c55 -16 187 -85 192 -100 3 -10
            -109 -85 -126 -85 -5 0 -21 20 -35 45 -15 24 -52 72 -84 106 -63 69 -66 68 53
            34z m-235 -125 c0 -124 -1 -130 -21 -130 -38 0 -159 32 -159 41 0 18 62 102
            118 162 30 31 57 57 59 57 1 0 3 -58 3 -130z m212 -33 c26 -40 29 -50 17 -58
            -14 -8 -138 -39 -158 -39 -7 0 -11 46 -11 132 l0 132 60 -59 c34 -33 75 -82
            92 -108z m322 -39 c82 -94 141 -228 160 -365 l6 -43 -145 0 c-80 0 -145 3
            -145 8 0 48 -35 216 -58 278 l-29 80 59 34 c33 19 64 41 70 47 18 23 35 14 82
            -39z m-912 13 c24 -16 59 -37 79 -46 l36 -17 -23 -63 c-28 -76 -54 -200 -54
            -255 l0 -40 -145 0 -145 0 0 33 c0 56 30 159 65 232 34 67 120 185 136 185 4
            0 27 -13 51 -29z m340 -121 l38 0 0 -150 0 -150 -146 0 -146 0 7 68 c7 65 46
            217 65 252 9 17 13 17 77 -1 37 -11 85 -19 105 -19z m322 11 c24 -45 56 -170
            63 -243 l6 -68 -147 0 -146 0 0 150 0 150 28 1 c15 0 56 8 92 18 88 25 88 25
            104 -8z m-630 -373 c2 -7 8 -50 14 -95 6 -45 24 -120 39 -165 l28 -83 -83 -52
            -82 -52 -50 61 c-28 33 -64 86 -80 118 -35 70 -70 190 -70 242 l0 38 140 0
            c104 0 142 -3 144 -12z m346 -132 l0 -144 -64 -11 c-35 -6 -83 -18 -106 -26
            l-41 -15 -15 37 c-23 53 -52 172 -60 242 l-7 61 147 0 146 0 0 -144z m0 -338
            l0 -132 -46 44 c-54 52 -134 157 -134 175 0 15 90 43 143 44 l37 1 0 -132z
            m-202 17 c18 -30 56 -79 83 -110 54 -59 52 -62 -26 -41 -68 18 -135 48 -191
            86 -38 27 -44 34 -32 46 13 13 119 74 128 74 3 -1 20 -25 38 -55z"/>
            <path d="M1020 671 c0 -16 142 -595 149 -607 3 -7 29 22 61 67 30 43 58 78 61
            79 3 0 39 -47 80 -105 65 -92 77 -104 104 -105 17 0 43 8 58 18 l28 19 -86
            116 c-47 64 -85 118 -85 121 0 2 43 19 96 36 52 18 94 33 92 35 -5 5 -511 311
            -535 324 -13 7 -23 8 -23 2z"/>
            </g>
</svg>
