<?xml version="1.0" standalone="no"?>
<!DOCTYPE svg PUBLIC "-//W3C//DTD SVG 20010904//EN"
 "http://www.w3.org/TR/2001/REC-SVG-20010904/DTD/svg10.dtd">
<svg version="1.0" xmlns="http://www.w3.org/2000/svg"
            width="626.000000pt" height="626.000000pt" viewBox="0 0 626.000000 626.000000"
            preserveAspectRatio="xMidYMid meet">

            <g transform="translate(0.000000,626.000000) scale(0.100000,-0.100000)"
            stroke="none">
            <path d="M577 5682 l-577 -579 152 -143 c84 -79 213 -200 287 -269 74 -69 149
            -139 166 -156 17 -16 100 -95 185 -175 300 -280 894 -874 1041 -1040 89 -101
            139 -168 139 -188 0 -27 -66 -115 -181 -242 -177 -196 -670 -684 -1049 -1040
            -96 -90 -242 -228 -325 -305 -82 -78 -210 -197 -283 -265 l-134 -123 579 -579
            578 -579 85 89 c47 49 146 154 222 234 75 79 160 169 190 199 29 31 118 125
            198 210 545 579 1153 1173 1253 1225 32 17 47 11 117 -45 143 -114 765 -731
            1175 -1165 88 -93 174 -183 190 -201 17 -17 107 -112 200 -210 94 -99 204
            -215 244 -258 l75 -77 578 577 579 578 -68 65 c-38 36 -144 137 -237 225 -93
            88 -192 183 -221 210 -29 28 -126 120 -216 205 -671 635 -1229 1209 -1229
            1264 0 39 125 182 435 496 264 267 520 520 779 766 110 104 209 198 221 209
            11 11 101 96 200 190 99 93 215 204 258 245 l77 75 -578 578 -579 578 -173
            -183 c-96 -101 -183 -192 -195 -203 -11 -12 -105 -110 -210 -219 -715 -748
            -1233 -1261 -1352 -1340 -39 -26 -43 -27 -70 -13 -59 31 -206 168 -598 562
            -288 289 -430 434 -695 712 -331 347 -494 518 -570 596 l-85 88 -578 -579z"/>
            </g>
</svg>
